<?xml version="1.0" standalone="no"?>
<!DOCTYPE svg PUBLIC "-//W3C//DTD SVG 20010904//EN"
 "http://www.w3.org/TR/2001/REC-SVG-20010904/DTD/svg10.dtd">
<svg version="1.0" xmlns="http://www.w3.org/2000/svg"
 width="260.000000pt" height="260.000000pt" viewBox="0 0 260.000000 260.000000"
 preserveAspectRatio="xMidYMid meet">
<metadata>
Created by potrace 1.14, written by Peter Selinger 2001-2017
</metadata>
<g transform="translate(0.000000,260.000000) scale(0.100000,-0.100000)"
fill="#000000" stroke="none">
<path d="M1145 2473 c-81 -10 -190 -39 -280 -74 -356 -139 -623 -446 -716
-822 -29 -116 -36 -341 -15 -467 105 -643 712 -1079 1356 -975 568 93 990 587
990 1162 0 579 -419 1077 -985 1168 -81 13 -273 18 -350 8z m285 -482 c30 -10
54 -22 53 -27 0 -5 -50 -157 -110 -339 l-108 -330 -3 345 c-1 190 0 351 3 357
7 19 99 15 165 -6z m-405 -151 c26 -45 46 -82 44 -84 -10 -9 -51 -27 -54 -24
-1 2 -24 39 -50 82 l-46 80 23 17 c12 10 26 16 29 13 4 -2 28 -40 54 -84z
m623 2 c-17 -31 -39 -69 -48 -84 -17 -31 -27 -34 -54 -13 -18 14 -17 18 30 99
l48 84 29 -14 28 -15 -33 -57z m-861 -208 c43 -25 79 -48 81 -49 3 -3 -15 -44
-24 -54 -3 -3 -62 29 -137 76 -36 23 -37 24 -21 48 9 14 18 25 19 25 2 0 39
-21 82 -46z m1123 27 c5 -11 10 -24 10 -29 0 -6 -36 -31 -81 -57 -76 -44 -81
-46 -95 -28 -7 10 -14 23 -14 29 0 10 142 100 162 103 4 1 12 -8 18 -18z
m-1120 -361 l0 -30 -100 0 -100 0 0 30 0 30 100 0 100 0 0 -30z m1220 0 l0
-30 -100 0 -100 0 0 30 0 30 100 0 100 0 0 -30z m-1150 -255 c7 -14 11 -27 9
-29 -3 -2 -130 -76 -161 -93 -4 -2 -14 9 -22 24 l-14 28 81 48 c45 26 84 47
88 47 3 0 12 -11 19 -25z m991 -25 c70 -42 78 -53 57 -83 -12 -15 -20 -13 -93
29 -44 25 -82 47 -84 50 -2 2 1 16 8 30 13 30 16 30 112 -26z m-798 -164 c18
-14 16 -19 -28 -95 -48 -83 -58 -91 -89 -68 -16 12 -14 19 30 95 25 45 51 82
58 82 6 0 19 -7 29 -14z m580 -68 c43 -76 45 -84 30 -96 -29 -21 -44 -10 -91
72 -43 75 -45 79 -27 92 10 8 24 14 30 14 6 0 32 -37 58 -82z m-303 -99 l0
-100 -32 3 -33 3 -3 98 -3 97 36 0 35 0 0 -101z"/>
</g>
</svg>
